<svg id="svg" version="1.1" xmlns="http://www.w3.org/2000/svg" xmlns:xlink="http://www.w3.org/1999/xlink" width="400" height="400" viewBox="0, 0, 400,400"><g id="svgg"><path id="path0" d="M0.000 200.000 L 0.000 400.000 200.000 400.000 L 400.000 400.000 400.000 386.600 L 400.000 373.200 216.285 373.200 L 32.570 373.200 30.808 372.300 C 28.733 371.240,27.684 369.928,27.183 367.769 C 26.610 365.299,26.685 34.411,27.259 32.131 C 27.904 29.569,29.795 27.787,32.480 27.212 C 34.047 26.876,74.614 26.789,188.000 26.879 L 341.400 27.000 342.995 27.837 C 344.114 28.423,344.890 29.257,345.595 30.626 L 346.600 32.579 346.600 173.389 L 346.600 314.200 345.700 316.026 C 345.082 317.281,344.268 318.157,343.100 318.826 L 341.400 319.800 213.400 319.800 L 85.400 319.800 83.700 318.826 C 82.532 318.157,81.718 317.281,81.100 316.026 L 80.200 314.200 80.095 201.200 C 79.979 77.969,79.849 84.857,82.353 82.353 C 84.852 79.854,79.051 79.978,188.000 80.094 L 287.800 80.200 289.580 81.200 C 290.558 81.750,291.728 82.830,292.180 83.600 L 293.000 85.000 293.000 173.400 L 293.000 261.800 292.180 263.200 C 291.728 263.970,290.558 265.050,289.580 265.600 L 287.800 266.600 213.400 266.600 L 139.000 266.600 137.200 265.600 C 135.871 264.862,135.138 264.077,134.400 262.600 L 133.400 260.600 133.400 199.989 L 133.400 139.379 134.416 137.405 C 135.204 135.872,135.872 135.204,137.405 134.416 L 139.378 133.400 186.189 133.400 C 237.771 133.400,235.756 133.305,237.984 135.843 C 240.002 138.141,239.996 138.033,239.988 173.200 C 239.980 211.541,240.118 210.192,235.992 212.300 C 233.222 213.715,193.578 213.715,190.808 212.300 C 187.363 210.539,186.822 208.877,186.812 200.000 C 186.798 188.028,187.633 187.180,199.832 186.793 C 212.596 186.388,213.000 185.977,213.000 173.400 C 213.000 163.741,212.794 163.006,209.580 161.200 L 207.800 160.200 188.049 160.082 C 162.714 159.931,161.690 160.148,160.454 165.920 C 159.816 168.897,159.816 231.103,160.454 234.080 C 161.015 236.697,163.045 238.912,165.487 239.570 C 168.577 240.402,261.093 239.968,262.652 239.114 C 267.081 236.690,266.830 240.827,266.707 172.189 L 266.600 112.578 265.595 110.626 C 264.890 109.257,264.114 108.423,262.995 107.837 L 261.400 107.000 188.000 106.878 C 134.207 106.788,114.034 106.877,112.480 107.211 C 109.795 107.788,107.904 109.569,107.259 112.131 C 106.687 114.403,106.613 285.312,107.183 287.769 C 107.684 289.928,108.733 291.240,110.808 292.300 L 112.570 293.200 213.400 293.200 L 314.230 293.200 315.992 292.300 C 318.067 291.240,319.116 289.928,319.617 287.769 C 320.148 285.482,320.114 60.625,319.582 58.712 C 318.994 56.595,317.474 54.972,315.289 54.129 C 313.476 53.429,308.303 53.400,186.400 53.400 L 59.400 53.400 57.515 54.328 C 56.360 54.897,55.276 55.827,54.715 56.728 L 53.800 58.200 53.800 200.000 C 53.800 341.464,53.802 341.803,54.607 343.200 C 55.118 344.088,56.142 344.966,57.407 345.600 L 59.400 346.600 213.400 346.600 L 367.400 346.600 369.393 345.600 C 370.658 344.966,371.682 344.088,372.193 343.200 C 372.998 341.803,373.000 341.451,373.102 170.900 L 373.204 -0.000 186.602 -0.000 L 0.000 0.000 0.000 200.000 " stroke="none" fill="#fcfcfc" fill-rule="evenodd"></path><path id="path1" d="M373.102 170.900 C 373.000 341.451,372.998 341.803,372.193 343.200 C 371.682 344.088,370.658 344.966,369.393 345.600 L 367.400 346.600 213.400 346.600 L 59.400 346.600 57.407 345.600 C 56.142 344.966,55.118 344.088,54.607 343.200 C 53.802 341.803,53.800 341.464,53.800 200.000 L 53.800 58.200 54.715 56.728 C 55.276 55.827,56.360 54.897,57.515 54.328 L 59.400 53.400 186.400 53.400 C 308.303 53.400,313.476 53.429,315.289 54.129 C 317.474 54.972,318.994 56.595,319.582 58.712 C 320.114 60.625,320.148 285.482,319.617 287.769 C 319.116 289.928,318.067 291.240,315.992 292.300 L 314.230 293.200 213.400 293.200 L 112.570 293.200 110.808 292.300 C 108.733 291.240,107.684 289.928,107.183 287.769 C 106.613 285.312,106.687 114.403,107.259 112.131 C 107.904 109.569,109.795 107.788,112.480 107.211 C 114.034 106.877,134.207 106.788,188.000 106.878 L 261.400 107.000 262.995 107.837 C 264.114 108.423,264.890 109.257,265.595 110.626 L 266.600 112.578 266.707 172.189 C 266.830 240.827,267.081 236.690,262.652 239.114 C 261.093 239.968,168.577 240.402,165.487 239.570 C 163.045 238.912,161.015 236.697,160.454 234.080 C 159.816 231.103,159.816 168.897,160.454 165.920 C 161.690 160.148,162.714 159.931,188.049 160.082 L 207.800 160.200 209.580 161.200 C 212.794 163.006,213.000 163.741,213.000 173.400 C 213.000 185.977,212.596 186.388,199.832 186.793 C 187.633 187.180,186.798 188.028,186.812 200.000 C 186.822 208.877,187.363 210.539,190.808 212.300 C 193.578 213.715,233.222 213.715,235.992 212.300 C 240.118 210.192,239.980 211.541,239.988 173.200 C 239.996 138.033,240.002 138.141,237.984 135.843 C 235.756 133.305,237.771 133.400,186.189 133.400 L 139.378 133.400 137.405 134.416 C 135.872 135.204,135.204 135.872,134.416 137.405 L 133.400 139.379 133.400 199.989 L 133.400 260.600 134.400 262.600 C 135.138 264.077,135.871 264.862,137.200 265.600 L 139.000 266.600 213.400 266.600 L 287.800 266.600 289.580 265.600 C 290.558 265.050,291.728 263.970,292.180 263.200 L 293.000 261.800 293.000 173.400 L 293.000 85.000 292.180 83.600 C 291.728 82.830,290.558 81.750,289.580 81.200 L 287.800 80.200 188.000 80.094 C 79.051 79.978,84.852 79.854,82.353 82.353 C 79.849 84.857,79.979 77.969,80.095 201.200 L 80.200 314.200 81.100 316.026 C 81.718 317.281,82.532 318.157,83.700 318.826 L 85.400 319.800 213.400 319.800 L 341.400 319.800 343.100 318.826 C 344.268 318.157,345.082 317.281,345.700 316.026 L 346.600 314.200 346.600 173.389 L 346.600 32.579 345.595 30.626 C 344.890 29.257,344.114 28.423,342.995 27.837 L 341.400 27.000 188.000 26.879 C 74.614 26.789,34.047 26.876,32.480 27.212 C 29.795 27.787,27.904 29.569,27.259 32.131 C 26.685 34.411,26.610 365.299,27.183 367.769 C 27.684 369.928,28.733 371.240,30.808 372.300 L 32.570 373.200 216.285 373.200 L 400.000 373.200 400.000 186.600 L 400.000 0.000 386.602 0.000 L 373.204 0.000 373.102 170.900 " stroke="none" fill="#040404" fill-rule="evenodd"></path></g></svg>